<mxfile host="65bd71144e">
    <diagram id="kdRuPmRTpqTlNM073oyb" name="Page-1">
        <mxGraphModel dx="1087" dy="459" grid="1" gridSize="10" guides="1" tooltips="1" connect="1" arrows="1" fold="1" page="1" pageScale="1" pageWidth="850" pageHeight="1100" math="0" shadow="0">
            <root>
                <mxCell id="0"/>
                <mxCell id="1" parent="0"/>
                <mxCell id="3" style="edgeStyle=none;shape=flexArrow;html=1;fontSize=36;" edge="1" parent="1" source="2">
                    <mxGeometry relative="1" as="geometry">
                        <mxPoint x="130" y="290" as="targetPoint"/>
                    </mxGeometry>
                </mxCell>
                <mxCell id="4" style="edgeStyle=none;shape=flexArrow;html=1;fontSize=36;" edge="1" parent="1" source="2">
                    <mxGeometry relative="1" as="geometry">
                        <mxPoint x="710" y="290" as="targetPoint"/>
                    </mxGeometry>
                </mxCell>
                <mxCell id="2" value="&lt;span style=&quot;font-size: 36px;&quot;&gt;Ice Cream Object&lt;/span&gt;" style="whiteSpace=wrap;html=1;" vertex="1" parent="1">
                    <mxGeometry x="325" y="20" width="200" height="140" as="geometry"/>
                </mxCell>
                <mxCell id="8" style="edgeStyle=elbowEdgeStyle;shape=flexArrow;html=1;fontSize=36;" edge="1" parent="1" source="5">
                    <mxGeometry relative="1" as="geometry">
                        <mxPoint x="330" y="711.9199829101562" as="targetPoint"/>
                    </mxGeometry>
                </mxCell>
                <mxCell id="5" value="Chocolate Ice Cream" style="whiteSpace=wrap;html=1;fontSize=36;" vertex="1" parent="1">
                    <mxGeometry x="30" y="310" width="240" height="150" as="geometry"/>
                </mxCell>
                <mxCell id="9" style="edgeStyle=elbowEdgeStyle;shape=flexArrow;html=1;fontSize=36;" edge="1" parent="1" source="6">
                    <mxGeometry relative="1" as="geometry">
                        <mxPoint x="500" y="710" as="targetPoint"/>
                    </mxGeometry>
                </mxCell>
                <mxCell id="6" value="Vanilla Ice Cream" style="whiteSpace=wrap;html=1;fontSize=36;" vertex="1" parent="1">
                    <mxGeometry x="580" y="310" width="240" height="150" as="geometry"/>
                </mxCell>
                <mxCell id="10" value="Ice Cream Shop" style="whiteSpace=wrap;html=1;fontSize=36;" vertex="1" parent="1">
                    <mxGeometry x="305" y="740" width="240" height="150" as="geometry"/>
                </mxCell>
            </root>
        </mxGraphModel>
    </diagram>
</mxfile>